<svg width="102" height="30" viewBox="0 0 102 30" fill="none" xmlns="http://www.w3.org/2000/svg">
<path d="M0.568 1.12H6.328V10.4L14.296 1.12H21.016L12.312 11.2L21.336 24H14.616L8.632 15.328L6.328 17.952V24H0.568V1.12ZM25.1205 5.664C23.6805 5.664 22.5605 4.896 22.5605 3.392C22.5605 1.92 23.6805 1.12 25.1205 1.12C26.5605 1.12 27.6805 1.92 27.6805 3.392C27.6805 4.896 26.5605 5.664 25.1205 5.664ZM22.5605 7.616H27.6805V24H22.5605V7.616ZM40.7455 7.104C43.9135 7.104 46.0575 9.184 46.0575 12.928V24H40.9375V14.56C40.9375 12.096 40.0735 11.264 38.3775 11.264C36.4255 11.264 35.3055 12.256 35.3055 14.528V24H30.1855V7.616H35.3055V9.984H35.3695C36.2335 8.48 37.8335 7.104 40.7455 7.104ZM57.627 4.992C55.451 4.992 54.779 4.992 54.779 6.912V7.616H57.627V11.456H54.779V24H49.659V11.456H47.227V7.616H49.659V6.496C49.659 2.816 50.715 0.831999 54.459 0.831999C55.899 0.831999 56.699 0.959999 57.627 1.152V4.992ZM66.8425 24.512C61.3705 24.512 58.0745 20.896 58.0745 15.808C58.0745 10.72 61.3705 7.104 66.8425 7.104C72.2825 7.104 75.5785 10.72 75.5785 15.808C75.5785 20.896 72.2825 24.512 66.8425 24.512ZM66.8425 20.672C69.0825 20.672 70.4585 18.976 70.4585 15.808C70.4585 12.64 69.0825 10.944 66.8425 10.944C64.5705 10.944 63.1945 12.64 63.1945 15.808C63.1945 18.976 64.5705 20.672 66.8425 20.672ZM77.3738 1.12H82.4938V24H77.3738V1.12ZM96.3573 7.616H101.477V29.664H96.3573V22.368H96.2933C95.6533 23.232 93.9253 24.512 91.5573 24.512C87.2053 24.512 84.4213 21.184 84.4213 15.808C84.4213 10.432 87.2053 7.104 91.5573 7.104C93.9253 7.104 95.6533 8.384 96.2933 9.248H96.3573V7.616ZM92.9013 20.672C94.9813 20.672 96.2613 19.008 96.2613 15.808C96.2613 12.608 94.9813 10.944 92.9013 10.944C90.8213 10.944 89.5413 12.608 89.5413 15.808C89.5413 19.008 90.8213 20.672 92.9013 20.672Z" fill="#F9FAFB"/>
</svg>
